/* XPM */
static char *result[] = {
/* columns rows colors chars-per-pixel */
"62 64 20 1 ",
"  c black",
". c #4A2912",
"X c #71482D",
"o c #AD4C4B",
"O c #DF5763",
"+ c #FF5F65",
"@ c #CF966F",
"# c #6A6A8E",
"$ c #3F48CC",
"% c #00A2E8",
"& c gray65",
"* c #FF979B",
"= c #F1A59C",
"- c #F7CFB6",
"; c #FDB9D0",
": c #A3C9C8",
"> c #FED8E5",
", c #EEEEF7",
"< c gray99",
"1 c None",
/* pixels */
"11111111111111111111111111111111111111111111111111111111111111",
"1111111111111111111111111111111111111&&&&&&1111111111111111111",
"1111111111111111111111111111111111111&&&&&&1111111111111111111",
"111111111111111111111111111&&&&&&&&&&,,,,<<&&11111111111111111",
"111111111111111111111111111&&&&&&&&&&,,,,<<&&11111111111111111",
"1111111111111111111&&&&&&&&,,,,,,,,<<<<<<<<&&11111111111111111",
"1111111111111111111&&&&&&&&,,,,,,,,<<<<<<<<&&11111111111111111",
"11111111111111111&&,,,,,,,,,,,,<<<<<<<<<<++OO11111111111111111",
"11111111111111111&&,,,,,,,,,,,,<<<<<<<<<<++OO11111111111111111",
"11111111111111111  ,,,,,,,,<<<<<<<<<<<<++++OO11111111111111111",
"11111111111111111  ,,,,,,,,<<<<<<<<<<<<++++OO11111111111111111",
"11111111111111111  ,,,,,,,,,,<<<<<<<<<<OO++OO  111111111111111",
"11111111111111111  ,,,,,,,,,,<<<<<<<<<<OO++OO  111111111111111",
"11111111111111111  ,,,,,,,,,,,,,,,,,,,,,,OOOO  111111111111111",
"11111111111111111  ,,,,,,,,,,,,,,,,,,,,,,OOOO  111111111111111",
"111111111111111    ##&&&&&&&&&&&&&&&&&&&&&&##  111111111111111",
"111111111111111    ##&&&&&&&&&&&&&&&&&&&&&&##  111111111111111",
"111111111111111  OOOO##################OOOO****  1111111111111",
"111111111111111  OOOO##################OOOO****  1111111111111",
"111111111111111  OOOOOOOOOOOOOOOOOOOOOOOOOOOO**  1111111111111",
"111111111111111  OOOOOOOOOOOOOOOOOOOOOOOOOOOO**  1111111111111",
"111111111111111  OOOOOOOOOOOOOOOOOOOOOO**..OOOO  1111111111111",
"111111111111111  OOOOOOOOOOOOOOOOOOOOOO**..OOOO  1111111111111",
"111111111111111  OOOOOOOOOOOOoo..OOOO**..@@ooOO  1111111111111",
"111111111111111  OOOOOOOOOOOOoo..OOOO**..@@ooOO  1111111111111",
"111111111111111  OOOOOOOOooOOOO@@......@@--    111111111111111",
"111111111111111  OOOOOOOOooOOOO@@......@@--    111111111111111",
"11111111111111111  OOOOoo--ooOO@@--,,$$----XX11111111111111111",
"11111111111111111  OOOOoo--ooOO@@--,,$$----XX11111111111111111",
"11111111111111111    OOoo--@@oo@@--,,%%----XX11111111111111111",
"11111111111111111    OOoo--@@oo@@--,,%%----XX11111111111111111",
"111111111111111  **OO  oo@@@@@@@@@@--------@@11111111111111111",
"111111111111111  **OO  oo@@@@@@@@@@--------@@11111111111111111",
"1111111111111  ****OOOO  ooXX@@@@@@@@--@@XX1111111111111111111",
"1111111111111  ****OOOO  ooXX@@@@@@@@--@@XX1111111111111111111",
"1111111111111  OO    OO      XX@@XXXX    111111111111111111111",
"1111111111111  OO    OO      XX@@XXXX    111111111111111111111",
"1111111111111  OOOOOOOO  11  XX;;==  1111111111111111111111111",
"1111111111111  OOOOOOOO  11  XX;;==  1111111111111111111111111",
"111111111111111        1111  ;;>>>>  1111111111111111111111111",
"111111111111111        1111  ;;>>>>  1111111111111111111111111",
"1111111111111111111111111    ==>>;;;;  11111111111111111111111",
"1111111111111111111111111    ==>>;;;;  11111111111111111111111",
"111111111111111111111    ::==    @@@@  11111111111111111111111",
"111111111111111111111    ::==    @@@@  11111111111111111111111",
"1111111111111111111  ,,::,,,,,,&&..@@@@  111111111111111111111",
"1111111111111111111  ,,::,,,,,,&&..@@@@  111111111111111111111",
"1111111111111111111  ,,::==;;,,,,&&  @@@@  1111111111111111111",
"1111111111111111111  ,,::==;;,,,,&&  @@@@  1111111111111111111",
"1111111111111111111    ;;;;;;,,,,,,&&    111111111111111111111",
"1111111111111111111    ;;;;;;,,,,,,&&    111111111111111111111",
"1111111111111111111  ;;;;;;;;>>,,,,,,&&;;  1111111111111111111",
"1111111111111111111  ;;;;;;;;>>,,,,,,&&;;  1111111111111111111",
"1111111111111111111  ##;;;;>>>>>>>>>>>>==  1111111111111111111",
"1111111111111111111  ##;;;;>>>>>>>>>>>>==  1111111111111111111",
"1111111111111111111  OO  ==;;>>>>>>;;==  111111111111111111111",
"1111111111111111111  OO  ==;;>>>>>>;;==  111111111111111111111",
"1111111111111111111    11          &&OOOO  1111111111111111111",
"1111111111111111111    11          &&OOOO  1111111111111111111",
"111111111111111111111111111111111  OOOO    1111111111111111111",
"111111111111111111111111111111111  OOOO    1111111111111111111",
"11111111111111111111111111111111111    11111111111111111111111",
"11111111111111111111111111111111111    11111111111111111111111",
"11111111111111111111111111111111111111111111111111111111111111"
};
