/* XPM */
static char *result[] = {
/* columns rows colors chars-per-pixel */
"64 64 20 1 ",
"  c black",
". c #4A2912",
"X c #71482D",
"o c #AD4C4B",
"O c #DF5763",
"+ c #FF5F65",
"@ c #CF966F",
"# c #6A6A8E",
"$ c #3F48CC",
"% c #00A2E8",
"& c gray65",
"* c #FF979B",
"= c #F1A59C",
"- c #F7CFB6",
"; c #FDB9D0",
": c #A3C9C8",
"> c #FED8E5",
", c #EEEEF7",
"< c gray99",
"1 c None",
/* pixels */
"1111111111111111111111111111111111111111111111111111111111111111",
"1111111111111111111111&&&&&&111111111111111111111111111111111111",
"1111111111111111111111&&&&&&111111111111111111111111111111111111",
"11111111111111111111&&<<,,,,&&&&&&&&&&11111111111111111111111111",
"11111111111111111111&&<<,,,,&&&&&&&&&&11111111111111111111111111",
"11111111111111111111&&<<<<<<<<,,,,,,,,&&&&&&&&111111111111111111",
"11111111111111111111&&<<<<<<<<,,,,,,,,&&&&&&&&111111111111111111",
"11111111111111111111OO++<<<<<<<<<<,,,,,,,,,,,,&&1111111111111111",
"11111111111111111111OO++<<<<<<<<<<,,,,,,,,,,,,&&1111111111111111",
"11111111111111111111OO++++<<<<<<<<<<<<,,,,,,,,  1111111111111111",
"11111111111111111111OO++++<<<<<<<<<<<<,,,,,,,,  1111111111111111",
"111111111111111111  OO++OO<<<<<<<<<<,,,,,,,,,,  1111111111111111",
"111111111111111111  OO++OO<<<<<<<<<<,,,,,,,,,,  1111111111111111",
"111111111111111111  OOOO,,,,,,,,,,,,,,,,,,,,,,  1111111111111111",
"111111111111111111  OOOO,,,,,,,,,,,,,,,,,,,,,,  1111111111111111",
"111111111111111111  ##&&&&&&&&&&&&&&&&&&&&&&##    11111111111111",
"111111111111111111  ##&&&&&&&&&&&&&&&&&&&&&&##    11111111111111",
"1111111111111111  ****OOOO##################OOOO  11111111111111",
"1111111111111111  ****OOOO##################OOOO  11111111111111",
"1111111111111111  **OOOOOOOOOOOOOOOOOOOOOOOOOOOO  11111111111111",
"1111111111111111  **OOOOOOOOOOOOOOOOOOOOOOOOOOOO  11111111111111",
"1111111111111111  OOOO..**OOOOOOOOOOOOOOOOOOOOOO  11111111111111",
"1111111111111111  OOOO..**OOOOOOOOOOOOOOOOOOOOOO  11111111111111",
"1111111111111111  OOoo@@..**OOOO..ooOOOOOOOOOOOO  11111111111111",
"1111111111111111  OOoo@@..**OOOO..ooOOOOOOOOOOOO  11111111111111",
"111111111111111111    --@@......@@OOOOooOOOOOOOO  11111111111111",
"111111111111111111    --@@......@@OOOOooOOOOOOOO  11111111111111",
"11111111111111111111XX----$$,,--@@OOoo--ooOOOO  1111111111111111",
"11111111111111111111XX----$$,,--@@OOoo--ooOOOO  1111111111111111",
"11111111111111111111XX----%%,,--@@oo@@--ooOO    1111111111111111",
"11111111111111111111XX----%%,,--@@oo@@--ooOO    1111111111111111",
"11111111111111111111@@--------@@@@@@@@@@oo  OO**  11111111111111",
"11111111111111111111@@--------@@@@@@@@@@oo  OO**  11111111111111",
"1111111111111111111111XX@@--@@@@@@@@XXoo  OOOO****  111111111111",
"1111111111111111111111XX@@--@@@@@@@@XXoo  OOOO****  111111111111",
"111111111111111111111111    XXXX@@XX      OO    OO  111111111111",
"111111111111111111111111    XXXX@@XX      OO    OO  111111111111",
"1111111111111111111111111111  ==;;XX  11  OOOOOOOO  111111111111",
"1111111111111111111111111111  ==;;XX  11  OOOOOOOO  111111111111",
"1111111111111111111111111111  >>>>;;  1111        11111111111111",
"1111111111111111111111111111  >>>>;;  1111        11111111111111",
"11111111111111111111111111  ;;;;>>==    111111111111111111111111",
"11111111111111111111111111  ;;;;>>==    111111111111111111111111",
"11111111111111111111111111  @@@@    ==::    11111111111111111111",
"11111111111111111111111111  @@@@    ==::    11111111111111111111",
"111111111111111111111111  @@@@..&&,,,,,,::,,  111111111111111111",
"111111111111111111111111  @@@@..&&,,,,,,::,,  111111111111111111",
"1111111111111111111111  @@@@  &&,,,,;;==::,,  111111111111111111",
"1111111111111111111111  @@@@  &&,,,,;;==::,,  111111111111111111",
"111111111111111111111111    &&,,,,,,;;;;;;    111111111111111111",
"111111111111111111111111    &&,,,,,,;;;;;;    111111111111111111",
"1111111111111111111111  ;;&&,,,,,,>>;;;;;;;;  111111111111111111",
"1111111111111111111111  ;;&&,,,,,,>>;;;;;;;;  111111111111111111",
"1111111111111111111111  ==>>>>>>>>>>>>;;;;##  111111111111111111",
"1111111111111111111111  ==>>>>>>>>>>>>;;;;##  111111111111111111",
"111111111111111111111111  ==;;>>>>>>;;==  OO  111111111111111111",
"111111111111111111111111  ==;;>>>>>>;;==  OO  111111111111111111",
"1111111111111111111111  OOOO&&          11    111111111111111111",
"1111111111111111111111  OOOO&&          11    111111111111111111",
"1111111111111111111111    OOOO  11111111111111111111111111111111",
"1111111111111111111111    OOOO  11111111111111111111111111111111",
"11111111111111111111111111    1111111111111111111111111111111111",
"11111111111111111111111111    1111111111111111111111111111111111",
"1111111111111111111111111111111111111111111111111111111111111111"
};
