/* XPM */
static char *result[] = {
/* columns rows colors chars-per-pixel */
"64 64 20 1 ",
"  c black",
". c #4A2912",
"X c #71482D",
"o c #DF5763",
"O c #FF5F65",
"+ c #CF966F",
"@ c #6A6A8E",
"# c #3F48CC",
"$ c #00A2E8",
"% c #B38295",
"& c gray65",
"* c #FF979B",
"= c #F1A59C",
"- c #F7CFB6",
"; c #FDB9D0",
": c #FFD2D2",
"> c #FED8E5",
", c #EEEEF7",
"< c gray99",
"1 c None",
/* pixels */
"1111111111111111111111111111111111111111111111111111111111111111",
"1111111111111111111111111111111111111111111111111111111111111111",
"1111111111111111111111111111111111111111111111111111111111111111",
"1111111111111111111111111111111111111111111111111111111111111111",
"11111111111111111111111111&&&&&&&&&&&&11111111111111111111111111",
"11111111111111111111111111&&&&&&&&&&&&11111111111111111111111111",
"11111111111111111111&&&&&&,,,,,,,,,,,,&&&&&&11111111111111111111",
"11111111111111111111&&&&&&,,,,,,,,,,,,&&&&&&11111111111111111111",
"111111111111111111&&,,,,<<<<<<<<<<<<<<<<,,,,&&111111111111111111",
"111111111111111111&&,,,,<<<<<<<<<<<<<<<<,,,,&&111111111111111111",
"111111111111111111&&,,<<<<<<<<OOOO<<<<<<<<,,&&111111111111111111",
"111111111111111111&&,,<<<<<<<<OOOO<<<<<<<<,,&&111111111111111111",
"111111111111111111&&,,,,<<<<OOOOOOOO<<<<,,,,&&111111111111111111",
"111111111111111111&&,,,,<<<<OOOOOOOO<<<<,,,,&&111111111111111111",
"1111111111111111  &&,,,,<<<<ooOOOOoo<<<<,,,,&&  1111111111111111",
"1111111111111111  &&,,,,<<<<ooOOOOoo<<<<,,,,&&  1111111111111111",
"1111111111111111  @@&&,,,,,,,,oooo,,,,,,,,&&@@  1111111111111111",
"1111111111111111  @@&&,,,,,,,,oooo,,,,,,,,&&@@  1111111111111111",
"1111111111111111  oo@@&&&&&&&&&&&&&&&&&&&&@@oo  1111111111111111",
"1111111111111111  oo@@&&&&&&&&&&&&&&&&&&&&@@oo  1111111111111111",
"1111111111111111  oooo@@@@************@@@@oooo  1111111111111111",
"1111111111111111  oooo@@@@************@@@@oooo  1111111111111111",
"11111111111111..++XXoooooo**oo****oo**ooooooXX++..11111111111111",
"11111111111111..++XXoooooo**oo****oo**ooooooXX++..11111111111111",
"11111111111111..++XX  oooooo..oooo..oooooo  XX++..11111111111111",
"11111111111111..++XX  oooooo..oooo..oooooo  XX++..11111111111111",
"111111111111  ..XX  XX  ....++oooo++....  XX  XX..  111111111111",
"111111111111  ..XX  XX  ....++oooo++....  XX  XX..  111111111111",
"1111111111  ::oo    XX++,,##--------##,,++XX    oo::  1111111111",
"1111111111  ::oo    XX++,,##--------##,,++XX    oo::  1111111111",
"1111111111  **oooo  XX--,,$$--------$$,,--XX  oooo**  1111111111",
"1111111111  **oooo  XX--,,$$--------$$,,--XX  oooo**  1111111111",
"1111111111  oo    oo..XX----------------XX..oo    oo  1111111111",
"1111111111  oo    oo..XX----------------XX..oo    oo  1111111111",
"1111111111  oooooooo    XX++--++++--++XX    oooooooo  1111111111",
"1111111111  oooooooo    XX++--++++--++XX    oooooooo  1111111111",
"111111111111        1111      XXXX      1111        111111111111",
"111111111111        1111      XXXX      1111        111111111111",
"1111111111111111111111  ==;;,,====,,;;==  1111111111111111111111",
"1111111111111111111111  ==;;,,====,,;;==  1111111111111111111111",
"1111111111111111111111  >>>>%%&&&&%%>>>>  1111111111111111111111",
"1111111111111111111111  >>>>%%&&&&%%>>>>  1111111111111111111111",
"1111111111111111111111    ;;%%,,,,%%;;    1111111111111111111111",
"1111111111111111111111    ;;%%,,,,%%;;    1111111111111111111111",
"11111111111111111111  ,,  --  ,,,,  --  ,,  11111111111111111111",
"11111111111111111111  ,,  --  ,,,,  --  ,,  11111111111111111111",
"111111111111111111  ====,,  --....--  ,,====  111111111111111111",
"111111111111111111  ====,,  --....--  ,,====  111111111111111111",
"111111111111111111  ====,,..--++++--..,,====  111111111111111111",
"111111111111111111  ====,,..--++++--..,,====  111111111111111111",
"111111111111111111  ==;;,,,,        ,,,,;;==  111111111111111111",
"111111111111111111  ==;;,,,,        ,,,,;;==  111111111111111111",
"11111111111111111111  ;;>>,,,,,,,,,,,,>>;;  11111111111111111111",
"11111111111111111111  ;;>>,,,,,,,,,,,,>>;;  11111111111111111111",
"1111111111111111111111  @@>>>>>>>>>>>>@@  1111111111111111111111",
"1111111111111111111111  @@>>>>>>>>>>>>@@  1111111111111111111111",
"111111111111111111111111  @@,,    ,,@@  111111111111111111111111",
"111111111111111111111111  @@,,    ,,@@  111111111111111111111111",
"111111111111111111111111  oooo    oooo  111111111111111111111111",
"111111111111111111111111  oooo    oooo  111111111111111111111111",
"11111111111111111111111111    1111    11111111111111111111111111",
"11111111111111111111111111    1111    11111111111111111111111111",
"1111111111111111111111111111111111111111111111111111111111111111",
"1111111111111111111111111111111111111111111111111111111111111111"
};
