/* XPM */
static char *result[] = {
/* columns rows colors chars-per-pixel */
"64 64 15 1 ",
"  c black",
". c #4A2912",
"X c #AD4C4B",
"o c #DF5763",
"O c #CF966F",
"+ c #4F6F8F",
"@ c #6A6A8E",
"# c gray65",
"$ c #FF9A9A",
"% c #F1A59C",
"& c #FDB9D0",
"* c #FED8E5",
"= c #EEEEF7",
"- c gray99",
"; c None",
/* pixels */
";;;;;;;;;;;;;;;;;;;;;;;;;;;;;;;;;;;;;;;;;;;;;;;;;;;;;;;;;;;;;;;;",
";;;;;;;;;;;;;;;;;;;;;;;;;;;;;;;;;;;;;;;;;;;;;;;;;;;;;;;;;;;;;;;;",
";;;;;;;;;;;;;;;;;;;;;;;;;;############;;;;;;;;;;;;;;;;;;;;;;;;;;",
";;;;;;;;;;;;;;;;;;;;;;;;;;############;;;;;;;;;;;;;;;;;;;;;;;;;;",
";;;;;;;;;;;;;;;;;;;;######============######;;;;;;;;;;;;;;;;;;;;",
";;;;;;;;;;;;;;;;;;;;######============######;;;;;;;;;;;;;;;;;;;;",
";;;;;;;;;;;;;;;;;;##====----------------====##;;;;;;;;;;;;;;;;;;",
";;;;;;;;;;;;;;;;;;##====----------------====##;;;;;;;;;;;;;;;;;;",
";;;;;;;;;;;;;;;;;;##====----------------====##;;;;;;;;;;;;;;;;;;",
";;;;;;;;;;;;;;;;;;##====----------------====##;;;;;;;;;;;;;;;;;;",
";;;;;;;;;;;;;;;;;;##========--------========##;;;;;;;;;;;;;;;;;;",
";;;;;;;;;;;;;;;;;;##========--------========##;;;;;;;;;;;;;;;;;;",
";;;;;;;;;;;;;;;;  ##========================##  ;;;;;;;;;;;;;;;;",
";;;;;;;;;;;;;;;;  ##========================##  ;;;;;;;;;;;;;;;;",
";;;;;;;;;;;;;;;;  ##========================##  ;;;;;;;;;;;;;;;;",
";;;;;;;;;;;;;;;;  ##========================##  ;;;;;;;;;;;;;;;;",
";;;;;;;;;;;;;;;;  @@##====================##@@  ;;;;;;;;;;;;;;;;",
";;;;;;;;;;;;;;;;  @@##====================##@@  ;;;;;;;;;;;;;;;;",
";;;;;;;;;;;;;;;;  XX@@####============####@@XX  ;;;;;;;;;;;;;;;;",
";;;;;;;;;;;;;;;;  XX@@####============####@@XX  ;;;;;;;;;;;;;;;;",
";;;;;;;;;;;;;;..OOooXX@@@@############@@@@XXooOO..;;;;;;;;;;;;;;",
";;;;;;;;;;;;;;..OOooXX@@@@############@@@@XXooOO..;;;;;;;;;;;;;;",
";;;;;;;;;;;;;;..OOooooooXX@@@@@@@@@@@@XXooooooOO..;;;;;;;;;;;;;;",
";;;;;;;;;;;;;;..OOooooooXX@@@@@@@@@@@@XXooooooOO..;;;;;;;;;;;;;;",
";;;;;;;;;;;;  oooo  oooooooooooooooooooooooo  oooo  ;;;;;;;;;;;;",
";;;;;;;;;;;;  oooo  oooooooooooooooooooooooo  oooo  ;;;;;;;;;;;;",
";;;;;;;;;;  oo$$$$oo  oooooooooooooooooooo  oo$$$$oo  ;;;;;;;;;;",
";;;;;;;;;;  oo$$$$oo  oooooooooooooooooooo  oo$$$$oo  ;;;;;;;;;;",
";;;;;;;;;;  $$$$    oo  XXooooooooooooXX  oo    $$$$  ;;;;;;;;;;",
";;;;;;;;;;  $$$$    oo  XXooooooooooooXX  oo    $$$$  ;;;;;;;;;;",
";;;;;;;;;;  XXooooooXX    XXooooooooXX    XXooooooXX  ;;;;;;;;;;",
";;;;;;;;;;  XXooooooXX    XXooooooooXX    XXooooooXX  ;;;;;;;;;;",
";;;;;;;;;;;;  XXooXX  ;;      ....      ;;  XXooXX  ;;;;;;;;;;;;",
";;;;;;;;;;;;  XXooXX  ;;      ....      ;;  XXooXX  ;;;;;;;;;;;;",
";;;;;;;;;;;;;;      ;;  %%%%==%%%%==%%%%  ;;      ;;;;;;;;;;;;;;",
";;;;;;;;;;;;;;      ;;  %%%%==%%%%==%%%%  ;;      ;;;;;;;;;;;;;;",
";;;;;;;;;;;;;;;;;;;;;;  %%&&##&&&&##&&%%  ;;;;;;;;;;;;;;;;;;;;;;",
";;;;;;;;;;;;;;;;;;;;;;  %%&&##&&&&##&&%%  ;;;;;;;;;;;;;;;;;;;;;;",
";;;;;;;;;;;;;;;;;;;;;;;;  ====&&&&====  ;;;;;;;;;;;;;;;;;;;;;;;;",
";;;;;;;;;;;;;;;;;;;;;;;;  ====&&&&====  ;;;;;;;;;;;;;;;;;;;;;;;;",
";;;;;;;;;;;;;;;;;;;;;;    ==@@====@@==    ;;;;;;;;;;;;;;;;;;;;;;",
";;;;;;;;;;;;;;;;;;;;;;    ==@@====@@==    ;;;;;;;;;;;;;;;;;;;;;;",
";;;;;;;;;;;;;;;;;;;;  ==  ##@@====@@##  ==  ;;;;;;;;;;;;;;;;;;;;",
";;;;;;;;;;;;;;;;;;;;  ==  ##@@====@@##  ==  ;;;;;;;;;;;;;;;;;;;;",
";;;;;;;;;;;;;;;;;;  %%%%%%  ##    ##  %%%%%%  ;;;;;;;;;;;;;;;;;;",
";;;;;;;;;;;;;;;;;;  %%%%%%  ##    ##  %%%%%%  ;;;;;;;;;;;;;;;;;;",
";;;;;;;;;;;;;;;;;;  %%%%&&**==&&&&==**&&%%%%  ;;;;;;;;;;;;;;;;;;",
";;;;;;;;;;;;;;;;;;  %%%%&&**==&&&&==**&&%%%%  ;;;;;;;;;;;;;;;;;;",
";;;;;;;;;;;;;;;;;;  %%&&****************&&%%  ;;;;;;;;;;;;;;;;;;",
";;;;;;;;;;;;;;;;;;  %%&&****************&&%%  ;;;;;;;;;;;;;;;;;;",
";;;;;;;;;;;;;;;;;;  %%&&****************&&%%  ;;;;;;;;;;;;;;;;;;",
";;;;;;;;;;;;;;;;;;  %%&&****************&&%%  ;;;;;;;;;;;;;;;;;;",
";;;;;;;;;;;;;;;;;;;;  %%****************%%  ;;;;;;;;;;;;;;;;;;;;",
";;;;;;;;;;;;;;;;;;;;  %%****************%%  ;;;;;;;;;;;;;;;;;;;;",
";;;;;;;;;;;;;;;;;;;;;;    %%&&&&&&&&%%    ;;;;;;;;;;;;;;;;;;;;;;",
";;;;;;;;;;;;;;;;;;;;;;    %%&&&&&&&&%%    ;;;;;;;;;;;;;;;;;;;;;;",
";;;;;;;;;;;;;;;;;;;;;;;;  oooo    oooo  ;;;;;;;;;;;;;;;;;;;;;;;;",
";;;;;;;;;;;;;;;;;;;;;;;;  oooo    oooo  ;;;;;;;;;;;;;;;;;;;;;;;;",
";;;;;;;;;;;;;;;;;;;;;;;;;;    ++++    ;;;;;;;;;;;;;;;;;;;;;;;;;;",
";;;;;;;;;;;;;;;;;;;;;;;;;;    ++++    ;;;;;;;;;;;;;;;;;;;;;;;;;;",
";;;;;;;;;;;;;;;;;;;;;;;;;;;;;;;;;;;;;;;;;;;;;;;;;;;;;;;;;;;;;;;;",
";;;;;;;;;;;;;;;;;;;;;;;;;;;;;;;;;;;;;;;;;;;;;;;;;;;;;;;;;;;;;;;;",
";;;;;;;;;;;;;;;;;;;;;;;;;;;;;;;;;;;;;;;;;;;;;;;;;;;;;;;;;;;;;;;;",
";;;;;;;;;;;;;;;;;;;;;;;;;;;;;;;;;;;;;;;;;;;;;;;;;;;;;;;;;;;;;;;;"
};
