/* XPM */
static char *result[] = {
/* columns rows colors chars-per-pixel */
"64 64 111 2 ",
"   c #000000",
".  c #090602",
"X  c #0E0903",
"o  c #0C0C0C",
"O  c #110B04",
"+  c #180F06",
"@  c #1B1107",
"#  c #1A140D",
"$  c #121212",
"%  c gray11",
"&  c #231609",
"*  c #26190A",
"=  c #291B0B",
"-  c #311F0C",
";  c #35220D",
":  c #3A260F",
">  c #3F2910",
",  c #262626",
"<  c #282724",
"1  c gray17",
"2  c #323232",
"3  c #3B3B3B",
"4  c #432B11",
"5  c #492F13",
"6  c #4F3314",
"7  c #523616",
"8  c #573816",
"9  c #5A3A17",
"0  c #603E18",
"q  c #503D28",
"w  c #423F3C",
"e  c #66421A",
"r  c #6A451B",
"t  c #6F481C",
"y  c #734A1D",
"u  c #7A4F1F",
"i  c #7C501F",
"p  c #7E5220",
"a  c #6A5033",
"s  c #444444",
"d  c #4E4A46",
"f  c gray29",
"g  c #5A4F42",
"h  c #545454",
"j  c #5C5C5C",
"k  c #70675C",
"l  c #636363",
"z  c gray42",
"x  c #716F6E",
"c  c #747474",
"v  c #7D7D7D",
"b  c #835521",
"n  c #8A5923",
"m  c #925E25",
"M  c #966126",
"N  c #9A6327",
"B  c #9F6628",
"V  c #A06728",
"C  c #A46A2A",
"Z  c #AA6E2B",
"A  c #AE702C",
"S  c #B4742E",
"D  c #B9772F",
"F  c #BB792F",
"G  c #BE7B30",
"H  c #C47E32",
"J  c #C68032",
"K  c #B0875B",
"L  c #CC8E4A",
"P  c #CE914E",
"I  c #C58F55",
"U  c #CF9453",
"Y  c #C6945D",
"T  c #D09656",
"R  c #D09758",
"E  c #D29A5D",
"W  c #D5A169",
"Q  c #CCA57B",
"!  c #D4A571",
"~  c #D8A771",
"^  c #D8A874",
"/  c #DAAD7B",
"(  c gray53",
")  c gray56",
"_  c #9C958C",
"`  c #979797",
"'  c #9D9D9D",
"]  c #B6ADA4",
"[  c #DCB181",
"{  c #DECAB3",
"}  c #D5D5D4",
"|  c #DBDBDB",
" . c #EFDAC4",
".. c #E3D7CB",
"X. c #F0DDC9",
"o. c #F1E1CE",
"O. c #E9E5DF",
"+. c #F3E5D5",
"@. c #F3E7DA",
"#. c #F5E9DB",
"$. c #E5E5E5",
"%. c #ECE9E6",
"&. c #ECECEB",
"*. c #F7EDE2",
"=. c #F8EFE5",
"-. c #F8F0E7",
";. c #F9F1E8",
":. c #F2F2F2",
">. c #FBF9F7",
",. c #FDFDFC",
"<. c None",
/* pixels */
"<.<.<.<.<.<.<.<.<.<.<.<.<.<.<.<.<.<.<.<.<.<.<.<.<.<.<.<.<.<.<.<.<.<.<.<.<.<.<.<.<.<.<.<.<.<.<.<.<.<.<.<.<.<.<.<.<.<.<.<.<.<.<.<.",
"<.<.<.<.<.<.<.<.<.<.<.<.<.<.<.<.<.<.<.<.<.<.<.<.<.<.<.<.<.<.<.<.<.<.<.<.<.<.<.<.<.<.<.<.<.<.<.<.<.<.<.<.<.<.<.<.<.<.<.<.<.<.<.<.",
"<.<.<.<.<.<.<.<.<.<.<.<.<.<.<.<.<.<.<.<.<.<.<.<.<.<.<.<.<.<.<.<.<.<.<.<.<.<.<.<.<.<.<.<.<.<.<.<.<.<.<.<.<.<.<.<.<.<.<.<.<.<.<.<.",
"<.<.<.<.<.<.<.<.<.<.<.<.<.<.<.<.<.<.<.<.<.<.<.<.<.<.<.<.<.<.<.<.<.<.<.<.<.<.<.<.<.<.<.<.<.<.<.<.<.<.<.<.<.<.<.<.<.<.<.<.<.<.<.<.",
"<.<.<.<.<.<.<.<.<.<.<.<.<.<.<.<.<.<.<.<.<.<.<.<.<.<.<.<.<.<.<.<.<.<.<.<.<.<.<.<.<.<.<.<.<.<.<.<.<.<.<.<.<.<.<.<.<.<.<.<.<.<.<.<.",
"<.<.<.<.<.<.<.<.<.<.<.<.<.<.<.<.<.<.<.<.<.<.<.<.<.<.<.<.<.<.<.<.<.<.<.<.<.<.<.<.<.<.<.<.<.<.<.<.<.<.<.<.<.<.<.<.<.<.<.<.<.<.<.<.",
"<.<.<.<.<.<.<.<.<.<.<.<.<.<.<.<.<.<.<.<.<.<.<.<.<.<.<.<.<.<.<.<.<.<.<.<.<.<.<.<.<.<.<.<.<.<.<.<.<.<.<.<.<.<.<.<.<.<.<.<.<.<.<.<.",
"<.<.<.<.<.<.<.<.<.<.<.<.<.<.<.<.<.<.<.<.<.<.<.<.<.<.<.<.<.<.<.<.<.<.<.<.<.<.<.<.<.<.<.<.<.<.<.<.<.<.<.<.<.<.<.<.<.<.<.<.<.<.<.<.",
"<.<.<.<.<.<.<.<.<.<.<.<.<.<.<.<.<.<.<.<.<.<.<.<.<.<.<.<.<.<.<.<.<.<.<.<.<.<.<.<.<.<.<.<.<.<.<.<.<.<.<.<.<.<.<.<.<.<.<.<.<.<.<.<.",
"<.<.<.<.<.<.<.<.<.<.<.<.<.<.<.<.<.<.                                                              <.<.<.<.<.<.<.<.<.<.<.<.<.<.<.",
"<.<.<.<.<.<.<.<.<.<.<.<.<.<.<.<.<.                                                                <.<.<.<.<.<.<.<.<.<.<.<.<.<.<.",
"<.<.<.<.<.<.<.<.<.<.<.<.<.<.<.<.<..   X & @ + O X X . . . . .   .       .                         <.<.<.<.<.<.<.<.<.<.<.<.<.<.<.",
"<.<.<.<.<.<.<.<.<.<.<.<.<.<.<.<.<.. . : A S S S S A Z Z Z C V B N N M m n b i y t r a k z l o     <.<.<.<.<.<.<.<.<.<.<.<.<.<.<.",
"<.<.<.<.<.<.<.<.<.<.<.<.<.<.<.<.<.O   - D J H J H H J J H H H H H H G G F F G F D G I { %.} $     <.<.<.<.<.<.<.<.<.<.<.<.<.<.<.",
"<.<.<.<.<.<.<.<.<.<.<.<.<.<.<.<.<.O   & S J J J J J J J J J J J H J J J J J J J J J R  .>.O.o     <.<.<.<.<.<.<.<.<.<.<.<.<.<.<.",
"<.<.<.<.<.<.<.<.<.<.<.<.<.<.<.<.<.O   @ S J J J J J J J J J J J H J J J J J J J J J E +.>.| o       <.<.<.<.<.<.<.<.<.<.<.<.<.<.",
"<.<.<.<.<.<.<.<.<.<.<.<.<.<.<.<.<.O   @ S J J J J J J J J J J J J J J J J J J J J J W @.,.| o       <.<.<.<.<.<.<.<.<.<.<.<.<.<.",
"<.<.<.<.<.<.<.<.<.<.<.<.<.<.<.<.<..   + A H J J J J J J J J J J J J J J J J J J J J ^ =.,.| o       <.<.<.<.<.<.<.<.<.<.<.<.<.<.",
"<.<.<.<.<.<.<.<.<.<.<.<.<.<.<.<.<..   O S J J J J J J J J J J J J J J J J J J J J J / ;.,.} o       <.<.<.<.<.<.<.<.<.<.<.<.<.<.",
"<.<.<.<.<.<.<.<.<.<.<.<.<.<.<.<.<..   O A J J J J J J J J J J J J J J J J J J J J J [ ;.,.} o       <.<.<.<.<.<.<.<.<.<.<.<.<.<.",
"<.<.<.<.<.<.<.<.<.<.<.<.<.<.<.<.<..   X Z J J J J J J J J J J J J J J J J J J J J J [ ;.>.} o       <.<.<.<.<.<.<.<.<.<.<.<.<.<.",
"<.<.<.<.<.<.<.<.<.<.<.<.<.<.<.<.<.X   X A J J J J J J J J J J J J J J J J J J J J J [ ;.,.| o       <.<.<.<.<.<.<.<.<.<.<.<.<.<.",
"<.<.<.<.<.<.<.<.<.<.<.<.<.<.<.<.<.X   X A J J J J J J J J J J J J J J J J J J J H J / -.,.} o       <.<.<.<.<.<.<.<.<.<.<.<.<.<.",
"<.<.<.<.<.<.<.<.<.<.<.<.<.<.<.<.<.X   . Z J J J J J J J J J J J J J J J J J J J J H / ;.,.| o       <.<.<.<.<.<.<.<.<.<.<.<.<.<.",
"<.<.<.<.<.<.<.<.<.<.<.<.<.<.<.<.<.X   . Z J J J J J J J J J J J J J J J J J J J J J / -.,.| o       <.<.<.<.<.<.<.<.<.<.<.<.<.<.",
"<.<.<.<.<.<.<.<.<.<.<.<.<.<.<.<.<.X   . Z J J J J J J J J J J J J J J J J J J J J J / -.,.| o       <.<.<.<.<.<.<.<.<.<.<.<.<.<.",
"<.<.<.<.<.<.<.<.<.<.<.<.<.<.<.<.<.X   . Z J J J J J J J J J J J J J J J J J J J J J / =.,.| o       <.<.<.<.<.<.<.<.<.<.<.<.<.<.",
"<.<.<.<.<.<.<.<.<.<.<.<.<.<.<.<.<.X   . Z J J J J J J J J J J J J J J J J J J J J H / -.>.| o       <.<.<.<.<.<.<.<.<.<.<.<.<.<.",
"<.<.<.<.<.<.<.<.<.<.<.<.<.<.<.<.<.X   . C J J J J J J J J J J J J J J J J J J J J J [ -.,.| o       <.<.<.<.<.<.<.<.<.<.<.<.<.<.",
"<.<.<.<.<.<.<.<.<.<.<.<.<.<.<.<.<.O     Z J J J J J J J J J J J J J J J J J J J J J / =.,.$.$       <.<.<.<.<.<.<.<.<.<.<.<.<.<.",
"<.<.<.<.<.<.<.<.<.<.<.<.<.<.<.<.<.X   . C J J J J J J J J J J J J J J J J J J H H G ! =.,.$.$       <.<.<.<.<.<.<.<.<.<.<.<.<.<.",
"<.<.<.<.<.<.<.<.<.<.<.<.<.<.<.<.<.O     C H J J J J J J J J J J J J J J J J H Z p p K #.,.$.$       <.<.<.<.<.<.<.<.<.<.<.<.<.<.",
"<.<.<.<.<.<.<.<.<.<.<.<.<.<.<.<.<.O     C J J J J J J J J J J J J J J J J H C *   . # ] >.$.$       <.<.<.<.<.<.<.<.<.<.<.<.<.<.",
"<.<.<.<.<.<.<.<.<.<.<.<.<.<.<.<.<.X   . V H J J J J J J J J J J J J J J J G :         d &.$.%       <.<.<.<.<.<.<.<.<.<.<.<.<.<.",
"<.<.<.<.<.<.<.<.<.<.<.<.<.<.<.<.<.X     C H J J J J J J J J J J J J J J H M .         < %.%.%       <.<.<.<.<.<.<.<.<.<.<.<.<.<.",
"<.<.<.<.<.<.<.<.<.<.<.<.<.<.<.<.<.X     V H J J J J J J J J J J J J J J H p     O     w &.$.,       <.<.<.<.<.<.<.<.<.<.<.<.<.<.",
"<.<.<.<.<.<.<.<.<.<.<.<.<.<.<.<.<.X     M H H J J J J J J J J J J J J J H n           _ >.$.,       <.<.<.<.<.<.<.<.<.<.<.<.<.<.",
"<.<.<.<.<.<.<.<.<.<.<.<.<.<.<.<.<.X   . m H H J J J J J J J J J J J J J J S *     . q ..,.&.1       <.<.<.<.<.<.<.<.<.<.<.<.<.<.",
"<.<.<.<.<.<.<.<.<.<.<.<.<.<.<.<.<.X     n H J J J J J J J J J J J J J J J J Z y 9 n Y +.,.&.1       <.<.<.<.<.<.<.<.<.<.<.<.<.<.",
"<.<.<.<.<.<.<.<.<.<.<.<.<.<.<.<.<.X     b H J J J J J J J J J J J J J J J J H H G G E +.,.&.3       <.<.<.<.<.<.<.<.<.<.<.<.<.<.",
"<.<.<.<.<.<.<.<.<.<.<.<.<.<.<.<.<..     b H J J J J J J J J J J J J J J J J J J J H U o.,.&.3       <.<.<.<.<.<.<.<.<.<.<.<.<.<.",
"<.<.<.<.<.<.<.<.<.<.<.<.<.<.<.<.<.      y G J J J J J J J J J J J J J J J J J J J H P X.>.&.3       <.<.<.<.<.<.<.<.<.<.<.<.<.<.",
"<.<.<.<.<.<.<.<.<.<.<.<.<.<.<.<.<.      y G J J J J J J J J J J J J J J J J J J J H L X.,.&.s       <.<.<.<.<.<.<.<.<.<.<.<.<.<.",
"<.<.<.<.<.<.<.<.<.<.<.<.<.<.<.<.<.      r F J J J J J J J J J J J J J J J J J J J J L X.,.%.f       <.<.<.<.<.<.<.<.<.<.<.<.<.<.",
"<.<.<.<.<.<.<.<.<.<.<.<.<.<.<.<.<.      e F J J J J J J J J J J J J J J J J J J J J L X.,.%.h       <.<.<.<.<.<.<.<.<.<.<.<.<.<.",
"<.<.<.<.<.<.<.<.<.<.<.<.<.<.<.<.<.      9 F J J J J J J J J J J J J J J J J J J J H L X.,.&.h       <.<.<.<.<.<.<.<.<.<.<.<.<.<.",
"<.<.<.<.<.<.<.<.<.<.<.<.<.<.<.<.<.      9 F J J J J J J J J J J J J J J J J J J J J P X.,.&.j       <.<.<.<.<.<.<.<.<.<.<.<.<.<.",
"<.<.<.<.<.<.<.<.<.<.<.<.<.<.<.<.<.      8 F J J J J J J J J J J J J J J J J J J J H T o.,.&.l       <.<.<.<.<.<.<.<.<.<.<.<.<.<.",
"<.<.<.<.<.<.<.<.<.<.<.<.<.<.<.<.<.      7 D J J J J J J J J J J J J J J H J J J J J E +.,.&.l       <.<.<.<.<.<.<.<.<.<.<.<.<.<.",
"<.<.<.<.<.<.<.<.<.<.<.<.<.<.<.<.<.      7 D J J J J J J J J J J J J J J J J J J J J W @.,.:.z       <.<.<.<.<.<.<.<.<.<.<.<.<.<.",
"<.<.<.<.<.<.<.<.<.<.<.<.<.<.<.<.<.      5 D J J J J J J J J J J J J J J J J J J J J ^ #.,.:.c       <.<.<.<.<.<.<.<.<.<.<.<.<.<.",
"<.<.<.<.<.<.<.<.<.<.<.<.<.<.<.<.<.      4 S J J J J J J J J J J J J J J J J J J J J / *.,.:.c       <.<.<.<.<.<.<.<.<.<.<.<.<.<.",
"<.<.<.<.<.<.<.<.<.<.<.<.<.<.<.<.<.      4 D H J J J J J J J J J J J J J J J J J J J [ =.,.:.v       <.<.<.<.<.<.<.<.<.<.<.<.<.<.",
"<.<.<.<.<.<.<.<.<.<.<.<.<.<.<.<.<.      : D J J J J J J J J J J J J J J J J J J J J [ =.,.:.v       <.<.<.<.<.<.<.<.<.<.<.<.<.<.",
"<.<.<.<.<.<.<.<.<.<.<.<.<.<.<.<.<.<.    : D J J J H J J J H J J J J J J J J J J J J / =.,.:.(       <.<.<.<.<.<.<.<.<.<.<.<.<.<.",
"<.<.<.<.<.<.<.<.<.<.<.<.<.<.<.<.<.<.    : D J J J H J J J J J J J J J J J J J J J J ^ *.,.:.)       <.<.<.<.<.<.<.<.<.<.<.<.<.<.",
"<.<.<.<.<.<.<.<.<.<.<.<.<.<.<.<.<.<.    : S H H J H J J J J J J J J J J J J J J J H ~ *.,.>.`       <.<.<.<.<.<.<.<.<.<.<.<.<.<.",
"<.<.<.<.<.<.<.<.<.<.<.<.<.<.<.<.<.<.    ; S J J H J J J J J J J J J J J J J J J J H ^ -.,.:.'       <.<.<.<.<.<.<.<.<.<.<.<.<.<.",
"<.<.<.<.<.<.<.<.<.<.<.<.<.<.<.<.<.<.    - S H H H H H F G G F F D F D D D D D D S D Q $.&.$.`       <.<.<.<.<.<.<.<.<.<.<.<.<.<.",
"<.<.<.<.<.<.<.<.<.<.<.<.<.<.<.<.<.<.    = V Z Z C V B N m n b u y r r e 9 9 8 7 7 7 g l j j 3       <.<.<.<.<.<.<.<.<.<.<.<.<.<.",
"<.<.<.<.<.<.<.<.<.<.<.<.<.<.<.<.<.<.      . . . .                                                   <.<.<.<.<.<.<.<.<.<.<.<.<.<.",
"<.<.<.<.<.<.<.<.<.<.<.<.<.<.<.<.<.<.                                                                  <.<.<.<.<.<.<.<.<.<.<.<.<.",
"<.<.<.<.<.<.<.<.<.<.<.<.<.<.<.<.<.<.                                                                <.<.<.<.<.<.<.<.<.<.<.<.<.<.",
"<.<.<.<.<.<.<.<.<.<.<.<.<.<.<.<.<.<.<.<.<.<.<.<.<.<.<.<.<.<.<.<.<.<.<.<.<.<.<.<.<.<.<.<.<.<.<.<.<.<.<.<.<.<.<.<.<.<.<.<.<.<.<.<."
};
