/* XPM */
static char *result[] = {
/* columns rows colors chars-per-pixel */
"64 64 16 1 ",
"  c None",
". c None",
"X c #1B2234",
"o c #303C58",
"O c #445973",
"+ c #647E93",
"@ c #95AFC0",
"# c #BED2DC",
"$ c white",
"% c None",
"& c black",
"* c black",
"= c black",
"- c black",
"; c black",
": c black",
/* pixels */
".....   XXXXXXXXXXXXXXXXXXXXXXXXXXXXXXXXXXXXXXXXXXXXXXXX   .....",
".....   ###@@@@@@@@@@@@@@@@@@@@@@@@@@@@@@@@@@@@@@@@@@###   .....",
".....   ###@@@@@@@@@@@@@@@@@@@@@@@@@@@@@@@@@@@@@@@@@@###   .....",
".....   ###@@@@@@@@@@@@@@@@@@@@@@@@@@@@@@@@@@@@@@@@@@###   .....",
".....   ###OOOOOO++++++++++++++++++++++++++++++OOOOOO###   .....",
".....   ###OOOOOO++++++++++++++++++++++++++++++OOOOOO###   .....",
".....   ###OOOOOO++++++++++++++++++++++++++++++OOOOOO###   .....",
".....   @@@+++@@@@@@@@@@@@@@@@@@@@@@@@@@@@@@@@@@@@+++@@@   .....",
".....   @@@+++@@@@@@@@@@@@@@@@@@@@@@@@@@@@@@@@@@@@+++@@@   .....",
".....   @@@+++@@@@@@@@@@@@@@@@@@@@@@@@@@@@@@@@@@@@+++@@@   .....",
".....   @@@+++@@@@@@@@@@@@@@@@@@@@@@@@@@@@@@@@@@@@+++@@@   .....",
".....   @@@+++@@@@@@@@@@@@@@@@@@@@@@@@@@@@@@@@@@@@+++@@@   .....",
".....   @@@+++@@@@@@@@@@@@@@@@@@@@@@@@@@@@@@@@@@@@+++@@@   .....",
".....   @@@+++@@@@@@@@@@@@@@@@@@@@@@@@@@@@@@@@@@@@+++@@@   .....",
".....   @@@+++@@@@@@@@@@@@@@@@@@@@@@@@@@@@@@@@@@@@+++@@@   .....",
".....   @@@+++@@@@@@@@@@@@@@@@@@@@@@@@@@@@@@@@@@@@+++@@@   .....",
".....   @@@+++@@@@@@@@@@@@@@@@@@@@@@@@@@@@@@@@@@@@+++@@@   .....",
".....   @@@+++@@@@@@@@@@@@@@@@@@@@@@@@@@@@@@@@@@@@+++@@@   .....",
".....   @@@+++@@@@@@@@@@@@@@@@@@@@@@@@@@@@@@@@@@@@+++@@@   .....",
".....   @@@+++@@@@@@@@@@@@@@@@@@@@@@@@@@@@@@@@@@@@+++@@@   .....",
".....   @@@+++@@@@@@@@@@@@@@@@@@@@@@@@@@@@@@@@@@@@+++@@@   .....",
".....   @@@+++@@@@@@@@@@@@@@@@@@@@@@@@@@@@@@@@@@@@+++@@@   .....",
".....   @@@+++@@@@@@@@@@@@@@@@@@@@@@@@@@@@@@@@@@@@+++@@@   .....",
".....   @@@+++@@@@@@@@@@@@@@@@@@@@@@@@@@@@@@@@@@@@+++@@@   .....",
".....   @@@+++@@@@@@@@@@@@@@@@@@@@@@@@@@@@@@@@@@@@+++@@@   .....",
".....   @@@+++@@@@@@@@@@@@@@@@@@@@@@@@@@@@@@@@@@@@+++@@@   .....",
".....   @@@+++@@@@@@@@@@@@@@@@@@@@@@@@@@@@@@@@@@@@+++@@@   .....",
".....   @@@+++@@@@@@@@@@@@@@@@@@@@@@@@@@@@@@@@@@@@+++@@@   .....",
".....   @@@+++@@@@@@@@@@@@@@@@@@@@@@@@@@@@@@@@@@@@+++@@@   .....",
".....   @@@+++@@@@@@@@@@@@@@@@@@@@@@@@@@@@@@@@@@@@+++@@@   .....",
".....   @@@+++@@@@@@@@@@@@@@@@@@@@@@@@@@@@@@@@@@@@+++@@@   .....",
".....   @@@+++@@@@@@@@@@@@@@@@@@@@@@@@@@@@@@@@@@@@+++@@@   .....",
".....   @@@+++@@@@@@@@@@@@@@@@@@@@@@@@@@@@@@@@@@@@+++@@@   .....",
".....   @@@+++@@@@@@@@@@@@@@@@@@@@@@@@@@@@@@@@@@@@+++@@@   .....",
".....   @@@+++@@@@@@@@@@@@@@@@@@@@@@@@@@@@@@@@@@@@+++@@@   .....",
".....   @@@+++@@@@@@@@@@@@@@@@@@@@@@@@@@@@@@@@@@@@+++@@@   .....",
".....   @@@+++@@@@@@@@@@@@@@@@@@@@@@@@@@@@@@@@@@@@+++@@@   .....",
".....   ###OOOOOO++++++++++++++++++++++++++++++OOOOOO###   .....",
".....   ###OOOOOO++++++++++++++++++++++++++++++OOOOOO###   .....",
".....   ###OOOOOO++++++++++++++++++++++++++++++OOOOOO###   .....",
".....   ###@@@@@@@@@@@@@@@@@@@@@@@@@@@@@@@@@@@@@@@@@@###   .....",
".....   ###@@@@@@@@@@@@@@@@@@@@@@@@@@@@@@@@@@@@@@@@@@###   .....",
".....   ###@@@@@@@@@@@@@@@@@@@@@@@@@@@@@@@@@@@@@@@@@@###   .....",
".....   ooooooOOOOOOOOOOOOOOOOOOOOOOOOOOOOOOOOOOOOoooooo   .....",
".....   ooooooOOOOOOOOOOOOOOOOOOOOOOOOOOOOOOOOOOOOoooooo   .....",
".....   ooooooOOOOOOOOOOOOOOOOOOOOOOOOOOOOOOOOOOOOoooooo   .....",
".....   OOO      XXXoooXXX            XXXoooXXX      OOO   .....",
".....   OOO      XXXoooXXX            XXXoooXXX      OOO   .....",
".....   OOO      XXXoooXXX            XXXoooXXX      OOO   .....",
".....   +++XXXXXXOOOXXX..................XXXOOOXXXXXX+++   .....",
".....   +++XXXXXXOOOXXX..................XXXOOOXXXXXX+++   .....",
".....   +++XXXXXXOOOXXX..................XXXOOOXXXXXX+++   .....",
".....   +++XXXOOOXXX........................XXXOOOXXX+++   .....",
".....   +++XXXOOOXXX........................XXXOOOXXX+++   .....",
".....   +++XXXOOOXXX........................XXXOOOXXX+++   .....",
".....   +++oooXXX..............................XXXooo+++   .....",
".....   +++oooXXX..............................XXXooo+++   .....",
".....   +++oooXXX..............................XXXooo+++   .....",
".....   OOOXXX....................................XXX+++   .....",
".....   OOOXXX....................................XXX+++   .....",
".....   OOOXXX....................................XXX+++   .....",
".....   OOO   ....................................   OOO   .....",
".....   OOO   ....................................   OOO   .....",
".....   OOO   ....................................   OOO   ....."
};
