/* XPM */
static char *result[] = {
/* columns rows colors chars-per-pixel */
"64 64 4 1 ",
"  c #285145",
". c #53BC34",
"X c #298356",
"o c #7B8C99",
/* pixels */
"oooooooooooooooooooooooooooooooooooooooooooooooooooooooooooooooo",
"XX  XXXX..  ....XX  XXXX  XX....XX  XXXX..  ....XX  XXXX  XX....",
"XX  XXXX..  ....XX  XXXX  XX....XX  XXXX..  ....XX  XXXX  XX....",
"  XX..XXXX  ..  XX..  ..XX  ....  XX..XXXX  ..  XX..  ..XX  ....",
"  XX..XXXX  ..  XX..  ..XX  ....  XX..XXXX  ..  XX..  ..XX  ....",
"  ....  XXXXXX  ....  ....XXXX..  ....  XXXXXX  ....  ....XXXX..",
"  ....  XXXXXX  ....  ....XXXX..  ....  XXXXXX  ....  ....XXXX..",
"XX....  ..XX    ....XX....XX  XXXX....  ..XX    ....XX....XX  XX",
"XX....  ..XX    ....XX....XX  XXXX....  ..XX    ....XX....XX  XX",
"XXXX..  ....  XX..XXXXXX....  XXXXXX..  ....  XX..XXXXXX....  XX",
"XXXX..  ....  XX..XXXXXX....  XXXXXX..  ....  XX..XXXXXX....  XX",
"  XXXXXX....XXXXXXXX..XXXXXXXX..  XXXXXX....XXXXXXXX..XXXXXXXX..",
"  XXXXXX....XXXXXXXX..XXXXXXXX..  XXXXXX....XXXXXXXX..XXXXXXXX..",
"  ....XXXX..XXXX  ....XX  ......  ....XXXX..XXXX  ....XX  ......",
"  ....XXXX..XXXX  ....XX  ......  ....XXXX..XXXX  ....XX  ......",
"XX....    XXXX..  ....    ....XXXX....    XXXX..  ....    ....XX",
"XX....    XXXX..  ....    ....XXXX....    XXXX..  ....    ....XX",
"XXXX..  XXXX....XX..XX  XXXX  XXXXXX..  XXXX....XX..XX  XXXX  XX",
"XXXX..  XXXX....XX..XX  XXXX  XXXXXX..  XXXX....XX..XX  XXXX  XX",
"..  XXXX..XX....  XXXX....  XX....  XXXX..XX....  XXXX....  XX..",
"..  XXXX..XX....  XXXX....  XX....  XXXX..XX....  XXXX....  XX..",
"..    ....  ..XXXX..XX....XX  ....    ....  ..XXXX..XX....XX  ..",
"..    ....  ..XXXX..XX....XX  ....    ....  ..XXXX..XX....XX  ..",
"..XX  ....  XX  ....  ..XX  XXXX..XX  ....  XX  ....  ..XX  XXXX",
"..XX  ....  XX  ....  ..XX  XXXX..XX  ....  XX  ....  ..XX  XXXX",
"XXXXXX..XX      ....  XXXX....XXXXXXXX..XX      ....  XXXX....XX",
"XXXXXX..XX      ....  XXXX....XXXXXXXX..XX      ....  XXXX....XX",
"XX..  XXXX  XX  ..XXXX..  ....  XX..  XXXX  XX  ..XXXX..  ....  ",
"XX..  XXXX  XX  ..XXXX..  ....  XX..  XXXX  XX  ..XXXX..  ....  ",
"....  ....  ..XXXX  ....  ..XX  ....  ....  ..XXXX  ....  ..XX  ",
"....  ....  ..XXXX  ....  ..XX  ....  ....  ..XXXX  ....  ..XX  ",
"....  ....XX....  XX....XXXX..XX....  ....XX....  XX....XXXX..XX",
"....  ....XX....  XX....XXXX..XX....  ....XX....  XX....XXXX..XX",
"XX  XXXX..  ....XX  XXXX  XX....XX  XXXX..  ....XX  XXXX  XX....",
"XX  XXXX..  ....XX  XXXX  XX....XX  XXXX..  ....XX  XXXX  XX....",
"  XX..XXXX  ..  XX..  ..XX  ....  XX..XXXX  ..  XX..  ..XX  ....",
"  XX..XXXX  ..  XX..  ..XX  ....  XX..XXXX  ..  XX..  ..XX  ....",
"  ....  XXXXXX  ....  ....XXXX..  ....  XXXXXX  ....  ....XXXX..",
"  ....  XXXXXX  ....  ....XXXX..  ....  XXXXXX  ....  ....XXXX..",
"XX....  ..XX    ....XX....XX  XXXX....  ..XX    ....XX....XX  XX",
"XX....  ..XX    ....XX....XX  XXXX....  ..XX    ....XX....XX  XX",
"XXXX..  ....  XX..XXXXXX....  XXXXXX..  ....  XX..XXXXXX....  XX",
"XXXX..  ....  XX..XXXXXX....  XXXXXX..  ....  XX..XXXXXX....  XX",
"  XXXXXX....XXXXXXXX..XXXXXXXX..  XXXXXX....XXXXXXXX..XXXXXXXX..",
"  XXXXXX....XXXXXXXX..XXXXXXXX..  XXXXXX....XXXXXXXX..XXXXXXXX..",
"  ....XXXX..XXXX  ....XX  ......  ....XXXX..XXXX  ....XX  ......",
"  ....XXXX..XXXX  ....XX  ......  ....XXXX..XXXX  ....XX  ......",
"XX....    XXXX..  ....    ....XXXX....    XXXX..  ....    ....XX",
"XX....    XXXX..  ....    ....XXXX....    XXXX..  ....    ....XX",
"XXXX..  XXXX....XX..XX  XXXX  XXXXXX..  XXXX....XX..XX  XXXX  XX",
"XXXX..  XXXX....XX..XX  XXXX  XXXXXX..  XXXX....XX..XX  XXXX  XX",
"..  XXXX..XX....  XXXX....  XX....  XXXX..XX....  XXXX....  XX..",
"..  XXXX..XX....  XXXX....  XX....  XXXX..XX....  XXXX....  XX..",
"..    ....  ..XXXX..XX....XX  ....    ....  ..XXXX..XX....XX  ..",
"..    ....  ..XXXX..XX....XX  ....    ....  ..XXXX..XX....XX  ..",
"..XX  ....  XX  ....  ..XX  XXXX..XX  ....  XX  ....  ..XX  XXXX",
"..XX  ....  XX  ....  ..XX  XXXX..XX  ....  XX  ....  ..XX  XXXX",
"XXXXXX..XX      ....  XXXX....XXXXXXXX..XX      ....  XXXX....XX",
"XXXXXX..XX      ....  XXXX....XXXXXXXX..XX      ....  XXXX....XX",
"XX..  XXXX  XX  ..XXXX..  ....  XX..  XXXX  XX  ..XXXX..  ....  ",
"XX..  XXXX  XX  ..XXXX..  ....  XX..  XXXX  XX  ..XXXX..  ....  ",
"....  ....  ..XXXX  ....  ..XX  ....  ....  ..XXXX  ....  ..XX  ",
"....  ....  ..XXXX  ....  ..XX  ....  ....  ..XXXX  ....  ..XX  ",
"....  ....XX....  XX....XXXX..XX....  ....XX....  XX....XXXX..XX"
};
