/* XPM */
static char *result[] = {
/* columns rows colors chars-per-pixel */
"64 64 71 1 ",
"  c #000000",
". c #080707",
"X c #090807",
"o c #0C0B0B",
"O c #100F0D",
"+ c #141312",
"@ c #191714",
"# c #1C1916",
"$ c #1E1B19",
"% c #211E1B",
"& c #26221F",
"* c #252220",
"= c #2A2622",
"- c #2D2925",
"; c #2A2A2A",
": c #302B27",
"> c #332E29",
", c #36312C",
"< c #39342E",
"1 c #343434",
"2 c #3C3631",
"3 c #3F3933",
"4 c #3C3C3C",
"5 c #413B35",
"6 c #443F39",
"7 c #47423C",
"8 c #49443E",
"9 c gray28",
"0 c #4E4944",
"q c gray30",
"w c #524D48",
"e c #56514C",
"r c #59544F",
"t c #565656",
"y c #5B5751",
"u c #5E5A54",
"i c #615C57",
"p c #635E5A",
"a c #64605B",
"s c gray39",
"d c #6E6A66",
"f c #6A6A6A",
"g c #76736E",
"h c #7C7C7C",
"j c #85817E",
"k c #939290",
"l c gray62",
"z c #A4A29F",
"x c #A4A3A2",
"c c #AEADAC",
"v c #B4B1AF",
"b c #B4B3B1",
"n c #B9B8B7",
"m c #BBBBBA",
"M c #C1BFBD",
"N c #C2C2C2",
"B c #C9C7C5",
"V c #CAC9C7",
"C c #CDCCCC",
"Z c #D0CFCD",
"A c #D2D0CF",
"S c #D4D3D2",
"D c #D8D7D5",
"F c #DDDDDD",
"G c #E0DFDE",
"H c #E2E2E1",
"J c #E8E8E7",
"K c #EDEDEC",
"L c #F5F5F4",
"P c #F8F7F7",
"I c #FEFEFE",
/* pixels */
"                                                                ",
"                                                                ",
"                                                                ",
"                                                                ",
"                            ..XooOOO+@###%#@+OoX... .          +",
"     X--===&*===---:>><>>-->>,,<<<2222223<<3<<<<<,,,2dnNNMb1   *",
"     -32232222232222323333333333553333533333553333333yBPIILq   O",
"    X<333333333335533533333333333333333333333533333337zKIILt   .",
"    o<333333333333333333333333333333333333333333333335jGIILs    ",
"    o<333333333333333333333333333333333333333333333335dZPILh    ",
"    X<333333333333333333333333333333333333333333333333yMLIPl    ",
"    X<3333333333333333333333333333333333333333333333330vLIIN    ",
"    o<3333333333333333333333333333333333333333533333338xKIIS.   ",
"    o<3333333333333333333333333333333333333333253333336kJIID.   ",
"    .,3333333333333333335333333333333333333333333333335jHIIHo   ",
"     ,3333333333333333333333333333333333333333333333333gFIIJ*   ",
"     >3333333333333333333333333333333333333333333333333aDIIL4   ",
"     :3333333333333333333333333333333333333333333333335pSIIPf   ",
"     =2333333333333333333333333333333333333333333333335uAPIIk   ",
"     &2333333333333333333333333333333333333333333333333yCIIIx   ",
"     $2533333333333333333333333333333333333333333333335rAPIIc   ",
"     $<333333333333333333333333333333333333333333333335rZIIIn   ",
"     #2333333333333333333333333333333333333333333333333uAPIIN   ",
"     @<333333333333333333333333333333333333333333333333iSIIIC.  ",
"     @<533333333333333333333333333333333333333333333333pSIIIDo  ",
"     @<533333333333333333333333333333333333333333333333aSIIIH@  ",
"     @<333333333333333333333333333333333333333333333333aSIIIJ;  ",
"     @2333333333333333333333333333333333333333333333333pSIIIJ4  ",
"     #2333333333333333333333333333333333333333333333333pSIIIK9  ",
"     %2333333333333333333333333333333333333333333333333iSIIIK;  ",
"     &<333333333333333333333333333353333333333333333333uAPIIHO  ",
"     =2333333333333333333333333333333333333333333333333uAIIIFo  ",
"     =,555555<5<5<3333333333333333333333333333333333333uZPIIHX  ",
"     =555<5<5555553333333333333333333333333333333333333yAIIIHX  ",
"    .:55<5555<555<3333333333333333333333333333333333333ySIIIHo  ",
"     :<5555<555,553333333333333333333333333333333333333uAPIIHo  ",
"     >55<5<5,555555533333333333333333333333333333333333uSIIIHo  ",
"    .>5555555555<55<33333333333333333333333333333333333uSIIIHo  ",
"    .>5555<55555555533333333333333333333333333333333333uAIIIHo  ",
"    .><5<5<5,55,<55<33333333333333333333333333333333333uAIIIH+  ",
"     ,53555,55555555<55<3333333333333333333333333333333rCIIIF+  ",
"     ,335,555555<55<55553333333333333333333333333333333eVPIIFo  ",
"     ,3355,5555,55<5<55<3333335333333333333333333333335wNPIIFO  ",
"     ,335555,5555555555533333325333333333333333333333350mPIIDX  ",
"     ,3355,5<5<55555555533333333333333333333333333333330nPIIS.  ",
"    .,33555555555<5<5<<533333333333333333333333333333338bPIIS.  ",
"     ,335<5555555<55555533333333333333333333333333333358vLIIA.  ",
"    .,3355<55<<55555<5<533333333333333333333333333333350vPIIC.  ",
"    .,33333333333333333333333333333333333333333333333330vLIIC.  ",
"     ,33333333333333333333333333333333333333333333333338vLIIV   ",
"    .,33333333333333333333523333333333333333333333333337cLIIB   ",
"     ,33333333333333333333353333333333333333333333333337zLIIN   ",
"     <33333333333333333333333333333333333333333333333337kKIIN   ",
"    .,33333333333333333333333333333333333333333333333335jJIIm   ",
"     ,33333333333333333333333333333333333333333333333333gHIIn   ",
"     -33333333333333333333333333333333333333333333333335pDIIm   ",
"     #33333333333333335333333333333333333333333333333333eVIIC.  ",
"     +223333333333333355333333333333333333333333333533330mPPh   ",
"      @>>,,,,,>>>>,<<33<<<<<<,<>>>>,>,,<222233332<2222<<7xSh    ",
"                 .X+@##+OX.. .       ..XO+#%&==&%#$%%$@@#>+     ",
"                                                                ",
"                                                                ",
"                                                                ",
"                                                                "
};
