/* XPM */
static char *result[] = {
/* columns rows colors chars-per-pixel */
"64 64 7 1 ",
"  c #1A2221",
". c #28443A",
"X c #286A4D",
"o c #5C6C78",
"O c #36954A",
"+ c #7B8C99",
"@ c None",
/* pixels */
"++++++++++++++++++++++++++++++++++++++++++++++++++++++++++++++++",
"@@@@@@@@@@@@@@@@@@@@@@@@@@@@@@@@@@@@@@@@@@@@@@@@@@@@@@@@@@@@@@@@",
"@@@@@@@@@@@@@@@@@@@@@@@@@@@@@@@@@@@@@@@@@@@@@@@@@@@@@@@@@@@@@@@@",
"@@@@@@@@@@@@@@@@@@@@    @@@@@@@@@@@@@@@@@@@@@@@@@@@@@@@@@@@@@@@@",
"@@@@@@@@@@@@@@@@@@@@    @@@@@@@@@@@@@@@@@@@@@@@@@@@@@@@@@@@@@@@@",
"@@@@@@@@@@@@@@@@@@  OOOO      @@@@@@    @@@@@@@@@@@@@@@@@@@@@@@@",
"@@@@@@@@@@@@@@@@@@  OOOO      @@@@@@    @@@@@@@@@@@@@@@@@@@@@@@@",
"@@@@@@@@@@@@@@@@@@  OOOO  OOOO  @@  OOOO  @@@@@@@@@@@@@@@@@@@@@@",
"@@@@@@@@@@@@@@@@@@  OOOO  OOOO  @@  OOOO  @@@@@@@@@@@@@@@@@@@@@@",
"@@@@@@@@@@@@@@      OOOO  OOOOOO    OOOOOO    @@    @@@@@@@@@@@@",
"@@@@@@@@@@@@@@      OOOO  OOOOOO    OOOOOO    @@    @@@@@@@@@@@@",
"@@@@@@@@@@@@  OOOO          OOOO      OOOO      OOOO  @@@@@@@@@@",
"@@@@@@@@@@@@  OOOO          OOOO      OOOO      OOOO  @@@@@@@@@@",
"@@@@@@@@@@@@  OOOO                            OOOOOO  @@@@@@@@@@",
"@@@@@@@@@@@@  OOOO                            OOOOOO  @@@@@@@@@@",
"@@@@@@@@@@@@      OO  OOOO        OOOOOOOO    OOOO    @@@@@@@@@@",
"@@@@@@@@@@@@      OO  OOOO        OOOOOOOO    OOOO    @@@@@@@@@@",
"@@@@@@@@@@      OOOOOOOOOOOO    OOOOOOOOOOOOOO        @@@@@@@@@@",
"@@@@@@@@@@      OOOOOOOOOOOO    OOOOOOOOOOOOOO        @@@@@@@@@@",
"@@@@@@@@@@      OOOOOOOOOOOO  OOOOOOOOOOOOOOOO  OOOO  @@@@@@@@@@",
"@@@@@@@@@@      OOOOOOOOOOOO  OOOOOOOOOOOOOOOO  OOOO  @@@@@@@@@@",
"@@@@@@@@        OOOO  OOOOOO  OOOOOOOOOOOOOOOO  OOOO    @@@@@@@@",
"@@@@@@@@        OOOO  OOOOOO  OOOOOOOOOOOOOOOO  OOOO    @@@@@@@@",
"@@@@@@@@          OO    OO      OOOO    OOOO            @@@@@@@@",
"@@@@@@@@          OO    OO      OOOO    OOOO            @@@@@@@@",
"@@@@@@@@  OOOO                          OO        XXXX  @@@@@@@@",
"@@@@@@@@  OOOO                          OO        XXXX  @@@@@@@@",
"@@@@@@  OOOOOO                    OOOO            XXXX  @@@@@@@@",
"@@@@@@  OOOOOO                    OOOO            XXXX  @@@@@@@@",
"@@@@@@  OOOO          OOOO  OO  OOOOOOOO                  @@@@@@",
"@@@@@@  OOOO          OOOO  OO  OOOOOOOO                  @@@@@@",
"@@@@@@      XXXXXX  OOOOOOOOOOOOOOOOOOOOOO  XXXX    XXXX  @@@@@@",
"@@@@@@      XXXXXX  OOOOOOOOOOOOOOOOOOOOOO  XXXX    XXXX  @@@@@@",
"@@@@@@    XXXXXXXX  OOOOOOOOOOOOOOOOOOOOOO  XXXX  ..XXXX  @@@@@@",
"@@@@@@    XXXXXXXX  OOOOOOOOOOOOOOOOOOOOOO  XXXX  ..XXXX  @@@@@@",
"@@@@@@@@  XXXXXX    OOOO  OOOOOO  OOOOOO          ....    @@@@@@",
"@@@@@@@@  XXXXXX    OOOO  OOOOOO  OOOOOO          ....    @@@@@@",
"@@@@@@@@                  OOOO          XXXX      ....    @@@@@@",
"@@@@@@@@                  OOOO          XXXX      ....    @@@@@@",
"@@@@@@@@                          XXXX  XXXXXX          @@@@@@@@",
"@@@@@@@@                          XXXX  XXXXXX          @@@@@@@@",
"@@@@@@@@      ....      XXXX  XX  XXXXXX  XXXX  ....  oooo@@@@@@",
"@@@@@@@@      ....      XXXX  XX  XXXXXX  XXXX  ....  oooo@@@@@@",
"@@@@@@@@    ......    XXXXXXXXXXXX  XXXX      ......  oooo@@@@@@",
"@@@@@@@@    ......    XXXXXXXXXXXX  XXXX      ......  oooo@@@@@@",
"@@@@@@@@oo  ....      XXXXXXXXXXXX            ....    oooo@@@@@@",
"@@@@@@@@oo  ....      XXXXXXXXXXXX            ....    oooo@@@@@@",
"@@@@@@oooooo            XX    XX        ....        oooooooo@@@@",
"@@@@@@oooooo            XX    XX        ....        oooooooo@@@@",
"@@@@@@oooooooooo                      ......      oooooooooo@@@@",
"@@@@@@oooooooooo                      ......      oooooooooo@@@@",
"@@@@@@oooooooooooo                    ....      oooooooooooo@@@@",
"@@@@@@oooooooooooo                    ....      oooooooooooo@@@@",
"@@@@@@oooooooooooooo        oooo            oooooooooooooo@@@@@@",
"@@@@@@oooooooooooooo        oooo            oooooooooooooo@@@@@@",
"@@@@@@@@oooooooooooooooooooooooooooooooooooooooooooooooooo@@@@@@",
"@@@@@@@@oooooooooooooooooooooooooooooooooooooooooooooooooo@@@@@@",
"@@@@@@@@@@oooooooooooooooooooooooooooooooooooooooooooo@@@@@@@@@@",
"@@@@@@@@@@oooooooooooooooooooooooooooooooooooooooooooo@@@@@@@@@@",
"@@@@@@@@@@@@@@@@oooooooo@@@@@@@@@@@@oooooooooooo@@@@@@@@@@@@@@@@",
"@@@@@@@@@@@@@@@@oooooooo@@@@@@@@@@@@oooooooooooo@@@@@@@@@@@@@@@@",
"@@@@@@@@@@@@@@@@@@@@@@@@@@@@@@@@@@@@@@@@@@@@@@@@@@@@@@@@@@@@@@@@",
"@@@@@@@@@@@@@@@@@@@@@@@@@@@@@@@@@@@@@@@@@@@@@@@@@@@@@@@@@@@@@@@@",
"@@@@@@@@@@@@@@@@@@@@@@@@@@@@@@@@@@@@@@@@@@@@@@@@@@@@@@@@@@@@@@@@"
};
